<?xml version="1.0" encoding="UTF-8"?>
<svg xmlns="http://www.w3.org/2000/svg" xmlns:xlink="http://www.w3.org/1999/xlink" width="60pt" height="60pt" viewBox="0 0 60 60" version="1.1">
<g id="surface23240973">
<path style=" stroke:none;fill-rule:nonzero;fill:rgb(100%,100%,100%);fill-opacity:1;" d="M 30 54.601562 C 16.414062 54.601562 5.398438 43.585938 5.398438 30 C 5.398438 16.414062 16.414062 5.398438 30 5.398438 C 43.585938 5.398438 54.601562 16.414062 54.601562 30 C 54.601562 43.585938 43.585938 54.601562 30 54.601562 Z M 30 54.601562 "/>
<path style=" stroke:none;fill-rule:nonzero;fill:rgb(90.588236%,29.803923%,23.529412%);fill-opacity:1;" d="M 30 8.800781 C 29.582031 8.800781 29.179688 8.964844 28.882812 9.257812 L 11.429688 23.53125 C 11.40625 23.546875 11.386719 23.5625 11.367188 23.578125 L 11.308594 23.628906 L 11.308594 23.632812 C 10.984375 23.933594 10.800781 24.355469 10.800781 24.800781 C 10.800781 25.683594 11.515625 26.398438 12.398438 26.398438 L 14 26.398438 L 14 44 C 14 45.769531 15.433594 47.199219 17.199219 47.199219 L 42.800781 47.199219 C 44.566406 47.199219 46 45.769531 46 44 L 46 26.398438 L 47.601562 26.398438 C 48.484375 26.398438 49.199219 25.683594 49.199219 24.800781 C 49.199219 24.355469 49.015625 23.929688 48.691406 23.628906 L 48.664062 23.609375 C 48.628906 23.578125 48.59375 23.546875 48.554688 23.519531 L 46 21.429688 L 46 15.199219 C 46 14.316406 45.28125 13.601562 44.398438 13.601562 L 42.800781 13.601562 C 41.917969 13.601562 41.199219 14.316406 41.199219 15.199219 L 41.199219 17.503906 L 31.085938 9.226562 C 30.789062 8.953125 30.402344 8.800781 30 8.800781 Z M 34.800781 29.601562 L 41.199219 29.601562 L 41.199219 42.398438 L 34.800781 42.398438 Z M 34.800781 29.601562 "/>
</g>
</svg>
