<?xml version="1.0" encoding="UTF-8"?>
<svg xmlns="http://www.w3.org/2000/svg" xmlns:xlink="http://www.w3.org/1999/xlink" width="36pt" height="36pt" viewBox="0 0 36 36" version="1.1">
<g id="surface24622632">
<path style=" stroke:none;fill-rule:nonzero;fill:rgb(92.54902%,94.117647%,94.509804%);fill-opacity:1;" d="M 15.988281 1.441406 C 15.636719 1.441406 15.335938 1.695312 15.277344 2.042969 L 14.578125 6.332031 C 13.734375 6.574219 12.933594 6.90625 12.175781 7.316406 L 8.636719 4.792969 C 8.351562 4.585938 7.960938 4.617188 7.710938 4.867188 L 4.910156 7.664062 C 4.664062 7.914062 4.628906 8.300781 4.828125 8.589844 L 7.316406 12.148438 C 6.898438 12.910156 6.5625 13.71875 6.3125 14.566406 L 2.042969 15.277344 C 1.695312 15.335938 1.441406 15.636719 1.441406 15.988281 L 1.441406 19.949219 C 1.441406 20.296875 1.691406 20.597656 2.035156 20.65625 L 6.308594 21.414062 C 6.558594 22.261719 6.890625 23.070312 7.3125 23.832031 L 4.792969 27.359375 C 4.585938 27.644531 4.617188 28.035156 4.867188 28.285156 L 7.667969 31.085938 C 7.914062 31.332031 8.300781 31.367188 8.589844 31.167969 L 12.15625 28.671875 C 12.914062 29.085938 13.71875 29.417969 14.566406 29.664062 L 15.277344 33.957031 C 15.335938 34.304688 15.636719 34.558594 15.988281 34.558594 L 19.949219 34.558594 C 20.296875 34.558594 20.597656 34.308594 20.65625 33.964844 L 21.421875 29.65625 C 22.261719 29.402344 23.0625 29.066406 23.820312 28.648438 L 27.410156 31.167969 C 27.695312 31.371094 28.085938 31.335938 28.332031 31.089844 L 31.132812 28.285156 C 31.382812 28.035156 31.414062 27.644531 31.207031 27.355469 L 28.648438 23.800781 C 29.054688 23.050781 29.386719 22.253906 29.632812 21.417969 L 33.964844 20.660156 C 34.308594 20.597656 34.558594 20.300781 34.558594 19.949219 L 34.558594 15.988281 C 34.558594 15.636719 34.304688 15.335938 33.957031 15.277344 L 29.628906 14.570312 C 29.382812 13.738281 29.050781 12.941406 28.640625 12.191406 L 31.167969 8.59375 C 31.367188 8.304688 31.335938 7.917969 31.089844 7.667969 L 28.285156 4.871094 C 28.035156 4.621094 27.644531 4.589844 27.355469 4.796875 L 23.8125 7.34375 C 23.058594 6.929688 22.253906 6.59375 21.410156 6.34375 L 20.65625 2.035156 C 20.597656 1.691406 20.296875 1.441406 19.949219 1.441406 Z M 16.601562 2.878906 L 19.34375 2.878906 L 20.058594 6.972656 C 20.109375 7.253906 20.320312 7.480469 20.59375 7.546875 C 21.648438 7.8125 22.636719 8.226562 23.539062 8.773438 C 23.785156 8.921875 24.097656 8.910156 24.332031 8.742188 L 27.703125 6.320312 L 29.640625 8.261719 L 27.242188 11.679688 C 27.078125 11.910156 27.066406 12.21875 27.214844 12.464844 C 27.753906 13.363281 28.164062 14.347656 28.425781 15.394531 C 28.496094 15.671875 28.726562 15.882812 29.007812 15.929688 L 33.117188 16.601562 L 33.117188 19.34375 L 29 20.066406 C 28.71875 20.117188 28.496094 20.328125 28.425781 20.605469 C 28.167969 21.648438 27.757812 22.632812 27.214844 23.535156 C 27.066406 23.78125 27.082031 24.089844 27.25 24.324219 L 29.683594 27.703125 L 27.742188 29.640625 L 24.328125 27.246094 C 24.09375 27.082031 23.785156 27.074219 23.542969 27.222656 C 22.644531 27.769531 21.652344 28.1875 20.605469 28.453125 C 20.328125 28.523438 20.121094 28.746094 20.070312 29.023438 L 19.34375 33.121094 L 16.597656 33.121094 L 15.921875 29.042969 C 15.871094 28.761719 15.660156 28.53125 15.382812 28.460938 C 14.328125 28.203125 13.335938 27.789062 12.425781 27.242188 C 12.183594 27.097656 11.875 27.105469 11.644531 27.269531 L 8.257812 29.640625 L 6.316406 27.699219 L 8.710938 24.351562 C 8.878906 24.121094 8.890625 23.808594 8.738281 23.5625 C 8.1875 22.648438 7.769531 21.65625 7.507812 20.597656 C 7.4375 20.324219 7.214844 20.113281 6.9375 20.0625 L 2.882812 19.34375 L 2.882812 16.597656 L 6.933594 15.925781 C 7.214844 15.878906 7.445312 15.667969 7.511719 15.386719 C 7.777344 14.328125 8.195312 13.332031 8.746094 12.425781 C 8.894531 12.179688 8.882812 11.871094 8.71875 11.636719 L 6.355469 8.257812 L 8.296875 6.316406 L 11.652344 8.714844 C 11.886719 8.882812 12.195312 8.894531 12.441406 8.746094 C 13.347656 8.203125 14.34375 7.792969 15.398438 7.535156 C 15.675781 7.464844 15.890625 7.234375 15.9375 6.949219 Z M 18 12.238281 C 14.828125 12.238281 12.238281 14.828125 12.238281 18 C 12.238281 21.171875 14.828125 23.761719 18 23.761719 C 21.171875 23.761719 23.761719 21.171875 23.761719 18 C 23.761719 14.828125 21.171875 12.238281 18 12.238281 Z M 18 13.679688 C 20.394531 13.679688 22.320312 15.605469 22.320312 18 C 22.320312 20.394531 20.394531 22.320312 18 22.320312 C 15.605469 22.320312 13.679688 20.394531 13.679688 18 C 13.679688 15.605469 15.605469 13.679688 18 13.679688 Z M 18 13.679688 "/>
</g>
</svg>
