<?xml version="1.0" encoding="UTF-8"?>
<svg xmlns="http://www.w3.org/2000/svg" xmlns:xlink="http://www.w3.org/1999/xlink" width="48pt" height="48pt" viewBox="0 0 48 48" version="1.1">
<g id="surface23236173">
<path style=" stroke:none;fill-rule:nonzero;fill:rgb(100%,100%,100%);fill-opacity:1;" d="M 24 42.238281 C 13.925781 42.238281 5.761719 34.074219 5.761719 24 C 5.761719 13.925781 13.925781 5.761719 24 5.761719 C 34.074219 5.761719 42.238281 13.925781 42.238281 24 C 42.238281 34.074219 34.074219 42.238281 24 42.238281 Z M 24 42.238281 "/>
<path style=" stroke:none;fill-rule:nonzero;fill:rgb(90.588236%,29.803923%,23.529412%);fill-opacity:1;" d="M 22.398438 31.039062 L 14.878906 23.519531 L 17.121094 21.28125 L 22.398438 26.558594 L 35.839844 13.121094 C 32.800781 10.078125 28.640625 8 24 8 C 15.199219 8 8 15.199219 8 24 C 8 32.800781 15.199219 40 24 40 C 32.800781 40 40 32.800781 40 24 C 40 20.960938 39.199219 18.238281 37.761719 15.839844 Z M 22.398438 31.039062 "/>
</g>
</svg>
