<?xml version="1.0" encoding="UTF-8"?>
<svg xmlns="http://www.w3.org/2000/svg" xmlns:xlink="http://www.w3.org/1999/xlink" width="36pt" height="36pt" viewBox="0 0 36 36" version="1.1">
<g id="surface24342449">
<path style=" stroke:none;fill-rule:nonzero;fill:rgb(92.54902%,94.117647%,94.509804%);fill-opacity:1;" d="M 30.71875 3.734375 C 30.664062 3.738281 30.609375 3.742188 30.554688 3.75 L 21 3.75 C 20.460938 3.742188 19.957031 4.027344 19.683594 4.492188 C 19.410156 4.960938 19.410156 5.539062 19.683594 6.007812 C 19.957031 6.472656 20.460938 6.757812 21 6.75 L 27.128906 6.75 L 16.9375 16.941406 C 16.546875 17.316406 16.390625 17.875 16.527344 18.398438 C 16.664062 18.925781 17.074219 19.335938 17.601562 19.472656 C 18.125 19.609375 18.683594 19.453125 19.058594 19.0625 L 29.25 8.871094 L 29.25 15 C 29.242188 15.539062 29.527344 16.042969 29.992188 16.316406 C 30.460938 16.589844 31.039062 16.589844 31.507812 16.316406 C 31.972656 16.042969 32.257812 15.539062 32.25 15 L 32.25 5.433594 C 32.308594 5 32.171875 4.558594 31.878906 4.230469 C 31.582031 3.902344 31.160156 3.722656 30.71875 3.734375 Z M 9.375 6 C 6.285156 6 3.75 8.535156 3.75 11.625 L 3.75 26.625 C 3.75 29.714844 6.285156 32.25 9.375 32.25 L 24.375 32.25 C 27.464844 32.25 30 29.714844 30 26.625 L 30 19.5 C 30.007812 18.960938 29.722656 18.457031 29.257812 18.183594 C 28.789062 17.910156 28.210938 17.910156 27.742188 18.183594 C 27.277344 18.457031 26.992188 18.960938 27 19.5 L 27 26.625 C 27 28.085938 25.835938 29.25 24.375 29.25 L 9.375 29.25 C 7.914062 29.25 6.75 28.085938 6.75 26.625 L 6.75 11.625 C 6.75 10.164062 7.914062 9 9.375 9 L 16.5 9 C 17.039062 9.007812 17.542969 8.722656 17.816406 8.257812 C 18.089844 7.789062 18.089844 7.210938 17.816406 6.742188 C 17.542969 6.277344 17.039062 5.992188 16.5 6 Z M 9.375 6 "/>
</g>
</svg>
